<?xml version="1.0" encoding="UTF-8"?>
<svg width="1260px" height="242px" viewBox="0 0 1260 242" version="1.1" xmlns="http://www.w3.org/2000/svg" xmlns:xlink="http://www.w3.org/1999/xlink">
    <!-- Generator: Sketch 50.2 (55047) - http://www.bohemiancoding.com/sketch -->
    <title>Group 4</title>
    <desc>Created with Sketch.</desc>
    <defs></defs>
    <g id="Heretage" stroke="none" stroke-width="1" fill="none" fill-rule="evenodd">
        <g id="1.landingpage_v1.0.0-copy-17" transform="translate(-95.000000, -187.000000)">
            <g id="Group-4" transform="translate(95.000000, 187.000000)">
                <ellipse id="Oval" fill="#F01B63" fill-rule="nonzero" transform="translate(659.797297, 63.964758) rotate(-47.930000) translate(-659.797297, -63.964758) " cx="659.797297" cy="63.9647577" rx="8.51351351" ry="8.52863436"></ellipse>
                <ellipse id="Oval" fill="#F01B63" fill-rule="nonzero" transform="translate(227.736486, 58.634361) rotate(-47.930000) translate(-227.736486, -58.634361) " cx="227.736486" cy="58.6343612" rx="8.51351351" ry="8.52863436"></ellipse>
                <path d="M610.938394,92.429883 C614.149846,94.1525636 615.063326,98.5661467 612.736807,102.740818 C610.595839,106.513111 606.456633,109.027973 602.745621,108.713616 L602.274608,108.713616 C601.521963,108.605248 600.799971,108.370461 600.147913,108.022029 C596.051527,105.821524 596.051527,100.100213 599.648354,95.824947 C602.859806,92.0149307 607.784034,90.7072024 610.938394,92.429883 Z" id="Shape" fill="#F01B63" fill-rule="nonzero"></path>
                <ellipse id="Oval" fill="#F01B63" fill-rule="nonzero" transform="translate(985.439189, 63.964758) rotate(-47.930000) translate(-985.439189, -63.964758) " cx="985.439189" cy="63.9647577" rx="8.51351351" ry="8.52863436"></ellipse>
                <path d="M612.08363,97.0132159 C612.08363,97.0132159 612.235916,97.4847509 612.754814,97.1669773 C613.273713,96.8492037 612.704052,97.8281515 612.704052,97.8281515 L611.908784,98.0792952 L611.908784,97.6282616 L612.08363,97.0132159 Z" id="Shape" fill="#F01B63" fill-rule="nonzero"></path>
                <path d="M546.993243,145.023155 C535.626697,155.93136 499.374305,191.747672 497.246153,178.371096 C496.790999,175.142268 499.066768,170.068394 504.82385,159.771049 C510.580932,149.473703 530.300167,116.587023 536.06955,104.918361 C538.037783,100.916608 539.563163,89.8588045 531.370393,85.7074533 C522.156602,81.0325083 509.227772,91.3921864 506.496848,93.5488944 C503.765925,95.7056023 484.563351,115.589702 480.220937,120.738374 C477.20708,124.353665 476.44439,123.381277 477.662234,120.738374 C479.138409,118.083006 483.812962,111.114221 486.765312,103.384979 C489.299412,96.75279 488.979574,88.7866837 483.407014,86.7297079 C468.128605,81.0574413 458.102918,96.1793301 454.683113,100.44288 C450.488316,106.252278 410.15184,161.728292 407.420917,164.795056 C404.689993,167.86182 389.596106,185.98814 386.791374,179.75488 C384.786237,175.242 391.650449,163.31154 392.400838,162.077355 C393.151227,160.843169 434.102776,86.9291723 434.102776,86.9291723 C434.102776,86.9291723 435.160701,85.5453885 432.737314,85.3957903 C430.313927,85.2461921 419.845388,85.3957903 419.845388,85.3957903 C419.845388,85.3957903 416.794627,85.221259 415.749003,87.091237 C414.518857,89.3601437 404.677692,107.224667 404.677692,107.224667 C404.677692,107.224667 402.857076,109.717971 403.164613,106.913004 C403.472149,104.108037 403.435245,91.741249 395.88215,87.7020965 C390.420304,85.2087925 377.688296,84.4732678 365.128509,97.0769195 C361.696403,100.916608 346.590214,117.559412 337.610151,134.264549 C335.678822,138.303701 327.768985,149.598368 320.892471,155.943827 C317.202034,159.683783 294.161406,182.684512 292.906657,174.843071 C292.906657,172.4121 294.272119,168.72201 297.82724,162.276819 C301.382361,155.831628 324.447592,113.171197 326.834075,108.334187 C329.220557,103.497177 336.503019,93.2372314 327.744382,86.779574 C324.558305,85.1713929 316.673071,84.3610691 308.406493,88.1633577 C300.139914,91.9656463 286.571407,102.686854 285.205946,103.958439 C283.840484,105.230024 280.285363,107.997591 282.130581,103.84624 C283.262315,101.078672 287.936869,89.7840053 279.178232,85.6326542 C270.419595,81.481303 260.061768,90.6192622 256.654265,94.2719525 C254.67373,96.416194 242.901236,110.827491 232.937056,123.318944 C225.728403,132.357171 219.405454,140.535208 218.544352,141.644728 C216.711435,143.888702 195.737452,173.496687 185.957794,176.862647 C184.427084,177.460749 182.692554,176.881769 181.812203,175.478864 C180.791182,173.172558 180.163808,170.97845 185.564147,160.780837 C191.800986,149.012442 225.371661,90.6940613 226.737122,88.1633577 C227.758143,86.779574 228.791466,84.7101317 225.506977,84.4234017 C222.222488,84.1366718 214.435666,84.2488705 214.435666,84.2488705 C214.435666,84.2488705 213.586865,83.8499418 212.221404,86.0315828 C210.855942,88.2132238 182.993143,134.912808 180.483646,138.602898 C177.531296,142.691916 159.891007,167.176161 136.469034,181.425394 C135.238888,182.111052 134.303977,183.557169 136.358321,182.672046 C138.412664,181.786923 155.290262,171.028316 166.275463,158.985658 C167.985366,157.315144 170.876208,154.161115 171.282156,153.625054 C172.020243,152.640199 174.062285,150.171828 172.930551,153.38819 C171.046376,156.987062 169.5414,160.777005 168.44052,164.695324 C166.410779,172.312368 166.127846,181.338128 173.447212,183.532236 C174.529741,183.931164 179.364213,184.454758 185.391927,180.477938 C193.417258,174.96245 200.653158,168.351011 206.894873,160.830703 C208.826202,158.636595 254.095562,101.689532 259.557409,96.3912609 C265.019255,91.0929899 266.384717,91.9033137 267.750179,92.6513049 C269.11564,93.3992961 270.29658,95.7804014 267.405738,102.799052 C263.653794,111.912078 223.268112,180.490405 223.268112,180.490405 L221.791937,183.145773 C221.791937,183.145773 220.992342,183.956097 222.591531,183.956097 L237.267169,183.956097 C237.267169,183.956097 238.497315,184.317626 239.542939,182.709445 C242.273862,178.333697 273.212025,122.54602 275.598508,118.506867 C277.98499,114.467715 279.571878,111.587949 286.177761,106.401876 C292.783643,101.215804 308.701728,88.7617507 313.474693,91.6415168 C318.247658,94.5212829 313.585406,100.866742 313.585406,100.866742 C313.585406,100.866742 281.392494,159.65885 279.916319,162.538616 C278.440144,165.418382 271.3053,179.480617 279.116724,183.058508 C286.928149,186.636399 296.744712,179.829679 301.185538,176.488652 C305.626363,173.147624 322.098014,157.128146 324.275372,154.82184 C326.452729,152.515534 328.937624,150.097029 328.48247,152.627733 C328.027316,155.158436 321.359926,177.984634 336.601431,183.544702 C344.056195,185.312992 351.899937,183.551646 357.919855,178.757558 C360.833951,176.492296 363.561552,173.990757 366.075721,171.277646 C366.789206,170.529655 371.266936,165.106719 371.98042,164.258996 C373.321279,162.638348 374.625233,162.463817 373.936352,164.071998 C372.912895,166.08294 372.088765,168.191792 371.476061,170.367591 C369.926077,176.363987 369.95068,184.242827 378.684714,185.851008 C380.960484,186.075406 388.808813,188.157315 398.699184,178.371096 C408.589555,168.584878 448.630796,112.896933 450.68514,110.353763 C452.739483,107.810593 465.446887,88.337889 473.098393,91.2176551 C474.328539,91.9033137 475.484876,93.4117627 473.31982,97.7875112 C471.154763,102.16326 426.340557,183.893765 426.340557,183.893765 C425.77469,184.467225 422.244172,186.200071 425.77469,186.200071 L440.782467,186.200071 C440.782467,186.200071 441.237621,187.359457 443.624103,182.921376 C446.010586,178.483295 460.686224,152.191404 464.438168,145.397151 C468.190112,138.602898 473.258312,132.643901 481.561796,123.530875 C489.865279,114.417849 512.647576,86.8294401 521.738353,90.4073313 C523.583571,91.1054565 524.198644,93.7483587 520.61892,100.779476 C517.039196,107.810593 486.974437,161.59116 484.698667,167.00163 C482.422898,172.4121 479.015394,182.696979 486.863723,185.788676 C494.712053,188.880373 507.136524,181.749523 507.7762,181.400461 C509.572212,180.428072 526.572825,168.72201 536.930652,158.000803 C538.406827,156.754151 541.30997,153.014195 540.362758,156.754151 L546.993243,145.023155 Z M362.877342,170.567055 C356.050034,177.485973 349.112013,179.293619 343.77318,177.835036 C338.434348,176.376453 339.910523,169.881396 341.042257,165.617846 C346.159663,149.137107 372.48478,109.144511 377.097826,102.337791 C387.590969,86.8294401 395.636121,92.364575 396.435716,93.1125662 C405.993948,102.337791 397.001583,120.314513 394.725814,125.151523 C386.237808,143.414974 369.704651,163.648136 362.877342,170.567055 Z" id="Shape" fill="#F01B63" fill-rule="nonzero"></path>
                <path d="M840.811871,32.9476553 C842.48163,30.6435107 842.039635,30.1826818 838.994779,30.0332237 C835.949923,29.8837657 826.287415,29.8837657 826.287415,29.8837657 C826.287415,29.8837657 824.322992,29.2734788 822.346291,33.2590262 C820.36959,37.2445735 770.546902,126.184554 766.495279,132.598794 C759.226913,144.107063 758.171035,147.332865 747.268486,156.399985 C739.693178,161.929932 713.504959,185.108381 708.667566,179.279518 C706.543534,176.975374 706.703143,175.281516 708.814898,170.673227 C710.926653,166.064938 752.707483,91.9088468 754.070301,89.7167957 C755.43312,87.5247446 754.377243,86.9518222 752.400542,86.9518222 C750.423841,86.9518222 739.84051,87.1012802 739.84051,87.1012802 C738.330359,87.1012802 737.151705,86.7774545 735.911663,89.4054248 C734.266458,92.8803239 725.893104,109.756626 725.622996,110.279729 C725.352887,110.802832 723.658572,111.973587 724.71445,108.747784 C725.770327,105.521982 729.404511,93.3909722 721.988812,88.9445959 C717.753024,86.6404513 707.427524,84.697497 693.234565,93.7023431 C675.063649,105.223066 658.574771,135.313949 654.474037,143.297498 C653.111218,146.523301 647.709054,153.510463 644.038038,156.810995 C638.709539,161.668381 616.609777,185.23293 609.832516,177.897031 C608.162756,175.742345 607.070046,171.482791 613.429866,161.045639 C619.789687,150.608487 653.7251,89.1438733 653.7251,89.1438733 C653.7251,89.1438733 654.952865,86.6529062 652.816555,86.5408126 C649.464757,86.2917159 641.47201,86.2294417 641.47201,86.2294417 C639.654918,86.2294417 638.13249,85.9180709 636.769671,88.2222154 C635.406853,90.52636 612.410822,132.598794 610.470954,136.011419 C608.531085,139.424044 600.329618,151.243683 593.368193,157.396372 C588.371191,161.880113 575.995323,175.244151 561.237593,178.694141 C556.928139,179.279518 544.429496,183.065788 547.155133,165.91548 C549.2055,157.047637 557.738464,142.674756 564.343837,130.904937 C565.817155,128.252057 588.518522,84.2740326 605.437119,88.8698669 C613.049259,91.0992824 613.503532,100.72687 609.832516,101.49907 L599.261463,114.028635 C601.189053,114.265277 604.307575,115.274118 608.973081,111.38821 C613.049259,108.012949 620.207127,97.1025132 612.545876,89.1563281 C608.862582,85.9305257 600.452394,82.9289103 586.382212,88.2346703 C571.47715,95.1595588 554.669052,107.900856 535.294927,149.512461 C529.733153,162.565129 529.303436,189.654396 551.636474,186.216862 C577.296754,182.268679 597.960032,155.316415 597.960032,155.316415 C597.960032,155.316415 600.415561,152.900176 599.01591,156.125979 C597.309317,159.937159 584.896617,181.03565 600.452394,184.909104 C616.707998,189.006745 641.091403,162.8765 648.654433,155.204321 C649.268315,154.432121 651.109962,154.133205 649.415647,157.047637 C647.721332,159.962068 641.447454,182.791782 656.524404,185.457117 C671.048859,188.035268 688.61817,171.333333 692.129577,167.646702 C692.731182,166.874502 693.639728,166.874502 692.731182,169.029188 C691.822636,171.183875 688.348062,184.07463 697.273911,186.067404 C699.091003,186.690145 705.499934,186.889423 712.105307,184.224088 C715.248385,182.978604 721.350375,178.930783 728.864294,173.512929 C738.035696,166.911866 748.692692,158.330485 754.1808,153.361005 C755.408565,151.978519 755.85056,153.049634 754.487741,154.89295 C753.124923,156.736266 739.128406,179.628254 754.647351,186.528232 C771.897443,194.200411 800.504359,159.650697 808.828603,149.363003 C809.589817,148.441345 809.430207,146.759943 807.920057,148.291887 C806.409906,149.823832 776.882168,186.67769 764.948296,179.005512 C763.401312,177.897031 760.405567,174.708593 765.402569,166.550676 C770.399571,158.392759 839.154388,35.2517998 840.811871,32.9476553 Z M698.992781,154.55667 C685.978477,174.820687 672.657231,177.747573 668.298666,178.046489 C654.670479,179.428976 662.245787,164.221622 664.062878,160.385533 C665.87997,156.549443 694.928881,108.785149 699.93816,102.034628 C704.94744,95.2841072 709.625223,90.0779859 716.73398,91.7469339 C728.545075,94.5119074 721.58365,112.920154 719.459617,118.313098 C717.335585,123.706042 711.970253,134.342471 698.992781,154.55667 Z" id="Shape" fill="#F01B63" fill-rule="nonzero"></path>
                <path d="M222.116354,17.0935678 C215.743643,18.1346504 185.839057,36.2567513 168.00272,64.0270248 C161.267235,74.5589071 153.14112,87.1729546 145.53498,98.9759261 C136.393101,102.292864 113.042614,112.219465 107.854961,128.513619 C107.746129,129.300484 107.963793,130.075243 109.414885,127.496748 C110.865977,124.918252 121.3743,112.171043 137.372588,108.030924 C138.267428,107.583016 140.431974,106.892996 138.835773,109.374647 C129.319028,124.131387 121.737073,135.873831 120.600385,137.689673 C118.363285,141.321356 95.0007053,177.081334 60.2591471,176.040251 C52.2055871,175.144436 39.7020121,171.113267 40.2824488,153.039588 C40.6421096,145.368603 45.4948602,138.63478 52.6530071,135.873831 C53.656679,135.46224 55.7970396,135.559085 54.6966282,137.084392 C51.1535455,141.236617 51.0688985,147.035205 54.551519,150.19477 C58.0341395,153.354334 64.0440784,152.615892 67.8531946,148.487878 C69.1660137,147.046716 70.086328,145.291627 70.5256222,143.391416 C70.7561191,142.359043 70.8173808,141.296016 70.7070087,140.243957 C70.4409752,135.813303 68.0345811,130.232616 60.2349622,130.232616 C47.5016309,130.232616 38.3113823,141.866109 38.3113823,153.075905 C38.3113823,158.583959 37.7914077,181.209347 68.1192281,181.209347 C80.7195427,181.403037 98.6768048,180.991446 121.192914,157.688143 C137.783731,140.51028 152.814624,116.190106 161.630008,100.610184 C165.463309,98.1890613 168.994299,96.9785001 172.948524,95.0537079 L173.649885,94.7026451 C174.254507,94.4726385 175.01633,94.4000048 175.004238,95.4531931 C174.992145,96.5063813 167.144157,114.350053 162.669957,118.526489 C161.823487,119.216509 162.295091,119.615994 162.669957,119.385988 C168.716173,115.07639 173.77081,105.658224 177.35017,98.4311736 C179.333329,94.4242161 180.445832,92.087833 181.050454,90.7925325 C187.725477,86.9792648 194.001449,82.4275547 198.33054,76.4594881 C201.643866,72.2467352 201.801068,67.2834344 199.443044,65.8307609 C197.085019,64.3780875 189.152384,63.9059687 179.877488,84.4612975 C177.459002,85.6718587 170.929088,88.3714101 167.579484,89.7998723 C169.030576,87.0397928 169.816584,85.4539577 169.816584,85.4539577 C172.235071,81.0959374 175.487935,73.8809928 180.119337,66.2181405 C187.241779,54.4272746 196.359473,41.5711149 200.96669,36.5109691 C208.57283,28.1459914 219.214171,20.6889345 222.237279,19.5025845 C225.260387,18.3162346 225.405496,16.8030331 222.116354,17.0935678 Z M185.040957,79.0258778 C187.241779,75.2731382 192.296416,65.6007543 197.33896,67.7555532 C199.430951,68.7240022 198.37891,71.7140883 195.404171,74.7647025 C192.582273,77.5226085 189.396584,79.8808774 185.935797,81.7738517 C183.529403,83.1417858 183.904268,81.0717262 185.101419,79.0379834 L185.040957,79.0258778 Z" id="Shape" fill="#F01B63" fill-rule="nonzero"></path>
                <path d="M147.532829,8.25141614 C147.532829,8.25141614 147.386908,7.23401644 151.582123,7.34433689 C156.081338,7.45465734 169.822184,11.4997405 166.867294,34.9979961 C165.65129,51.1660708 148.882593,86.2234579 123.358668,82.9383601 C113.873836,81.9577339 109.301661,70.0186098 115.941043,56.6453198 C122.580425,43.2720298 155.400375,0.259312497 240.630101,5.82436626 C245.238756,6.11855412 254.152066,6.30242154 264.694822,7.56497779 C281.354077,9.55074587 302.390948,13.0932581 319.791966,15.728691 C348.124861,20.0311885 404.57177,20.4847281 424.368317,18.4499288 C443.393199,16.5184578 462.150662,12.4901669 480.304504,6.43725764 C480.985466,6.43725764 482.323071,6.20435892 477.604975,8.88882317 C472.886879,11.5732874 420.185263,36.0153958 348.623423,32.5096571 C333.885453,31.8232187 305.224237,28.2071596 277.110223,22.985325 C263.503138,20.4602125 224.518047,15.9248163 198.860361,16.0719102 C187.052961,16.1331993 175.561723,16.9177003 165.018968,20.6073064 C138.91136,29.7516459 119.041853,49.8422254 117.679929,70.5947277 C117.98393,75.2772178 120.598339,82.3132109 130.192611,77.6184629 C145.344022,70.2637663 154.111411,54.2182699 158.039104,45.2087666 C167.900897,22.6175902 162.161358,8.86430752 149.235235,8.63140879 C149.198755,8.63140879 147.593629,8.7662449 147.532829,8.25141614 Z" id="Shape" fill="#F01B63" fill-rule="nonzero"></path>
                <path d="M1021.09566,19.7476249 C1003.42925,18.7243529 981.407579,18.1818955 965.311514,18.2681956 C953.398954,18.3298385 943.89099,18.021624 933.205264,21.5722544 C902.350384,31.829631 885.358731,51.999184 883.984677,72.8714659 C883.984677,78.8015118 887.346202,84.6452576 897.025924,79.9357409 C912.30001,72.5385943 923.231102,53.5525848 927.206045,44.4787516 C936.296886,23.6927697 930.800669,11.8696638 920.053602,9.21901958 C919.047597,8.97244803 919.292964,7.87520462 920.36031,8.08479044 C926.138699,9.19436243 936.309154,14.2490793 933.781876,34.221375 C931.401818,54.5142138 913.6986,85.2863436 891.13712,85.2863436 C880.022002,85.1753864 878.549801,69.6043929 884.904802,55.9936431 C894.09379,36.2679189 924.838255,1.16845838 1010.81479,6.67933259 L1048.01241,8.51629066 C1075.45669,9.92174851 1106.81457,13.0532072 1120.61645,12.9299215 C1152.98034,12.621707 1176.27792,5.33551763 1176.27792,5.33551763 C1176.96495,5.33551763 1178.31446,5.10127465 1173.55435,7.80123315 C1168.79423,10.5011917 1144.51518,28.7598151 1044.39325,22.0160832 L1021.09566,19.7476249 Z" id="Shape" fill="#F01B63" fill-rule="nonzero"></path>
                <path d="M936.773818,144.986784 L936.486486,145.477181 C936.59615,145.322288 936.692282,145.158216 936.773818,144.986784 Z" id="Shape"></path>
                <path d="M992.403338,17.0680777 C944.387125,26.4366136 891.883075,133.482643 890.606048,135.175901 C887.480373,139.242191 863.751996,181.103974 835.876322,178.780379 C828.579026,177.470267 819.980378,175.072515 821.379026,159.808476 C821.464161,159.066903 821.488486,158.362409 821.597945,157.694994 C821.950648,155.581511 825.17362,149.784884 827.496593,148.338817 C829.466863,147.102863 829.929025,147.473649 829.929025,147.930952 C829.726513,149.404864 829.880981,150.906731 830.379025,152.306231 C832.118215,156.96578 837.116863,158.028701 842.079025,156.112972 C847.041186,154.197242 850.422267,148.277019 848.683078,143.617471 C847.17497,139.563539 843.4047,138.018596 838.551998,138.982641 C837.800929,139.125354 837.061122,139.323635 836.338484,139.575899 L836.180376,139.637697 C824.297945,143.592751 820.503351,155.494994 820.041188,157.756791 C818.460107,165.456789 818.435783,179.732064 838.941187,181.103974 C853.158754,182.055659 868.130374,178.137683 891.116859,156.718589 C910.868209,138.364663 944.216855,72.883788 948.874963,65.2579481 C956.038476,53.5905365 965.087124,40.9590804 969.550637,36.0276214 C976.957393,27.8950401 987.964149,20.4545933 990.797933,19.3916723 C993.631716,18.3287514 995.383067,16.9197631 992.403338,17.0680777 Z" id="Shape" fill="#F01B63" fill-rule="nonzero"></path>
                <path d="M1175.92905,166.879571 C1185.37449,159.488477 1200.27842,146.121894 1206.84369,139.656388 L1208.91892,141.56201 C1202.9825,147.142763 1186.72025,162.306076 1177.31254,169.506608" id="Shape" fill="#F01B63" fill-rule="nonzero"></path>
                <path d="M1258.37677,80.0989288 C1256.91364,79.422599 1254.87744,81.2425411 1253.86544,83.5174688 C1247.84221,93.6378229 1229.06534,115.35416 1211.36143,132.705095 C1209.08138,134.943132 1206.22827,137.623857 1202.9728,140.685787 C1201.17799,138.917383 1198.81858,137.849631 1196.31555,137.673045 C1178.35559,136.295792 1168.07708,153.253226 1170.71072,167.099542 C1159.93231,174.539171 1149.54407,179.900622 1142.38691,179.507121 C1123.29302,178.609447 1144.9352,144.940517 1144.9352,144.940517 C1144.9352,144.940517 1146.64219,142.063041 1149.19048,137.808311 L1149.26363,137.685342 C1191.77984,123.027429 1201.03415,102.663752 1201.76572,95.9742351 C1203.11912,84.5995966 1189.8168,82.177106 1180.95265,85.0545821 C1157.87173,91.1169571 1134.72985,127.810926 1125.99982,143.268138 C1117.26979,158.725349 1099.5415,171.91993 1094.1401,175.559814 C1088.7387,179.199698 1086.62935,177.834742 1085.27595,176.322222 C1083.92255,174.809703 1084.05668,172.374915 1086.0319,168.735031 C1088.00713,165.095147 1111.63673,124.466168 1120.48868,107.189014 C1128.71881,91.2030354 1123.75635,87.0220872 1120.48868,84.9685038 C1104.1016,76.7787641 1082.34969,104.766523 1079.03325,107.803859 C1075.71682,110.841195 1077.75301,106.574169 1078.50896,104.766523 C1086.0319,87.6369325 1075.50954,83.8617822 1071.1933,83.5420626 C1057.95195,82.6197947 1041.27223,103.401567 1037.51686,107.791562 C1033.76148,112.181558 1037.82167,104.606664 1039.32139,100.671653 C1042.32081,92.4819137 1042.15011,85.9153656 1032.5544,84.6856749 C1022.33685,83.4559843 1010.46109,94.0928084 1006.09608,98.8025236 C1001.73106,103.512239 978.064888,134.266802 969.9445,144.669985 C966.286668,149.441185 941.193939,184.659525 934.47572,177.416647 C932.817503,175.301579 933.427141,169.53433 939.742998,159.229522 C946.058856,148.924715 982.661564,87.6738232 982.661564,87.6738232 C982.661564,87.6738232 983.880841,85.2144419 981.759299,85.0914729 C978.430671,84.8578316 970.480982,84.7840502 970.480982,84.7840502 C968.676452,84.7840502 967.176741,84.4766275 965.823343,86.7515552 C965.457559,87.3664006 959.726956,97.3883794 952.569797,109.759067 L952.959966,108.885987 C949.619146,114.198251 921.90497,161.258512 880.473923,186.848374 C879.876477,187.30336 879.632621,188.434675 880.888477,187.758345 C906.859086,173.715278 931.744538,142.604105 932.415141,142.837746 C932.744346,142.960715 933.110129,143.095981 932.695575,143.944467 L931.610418,145.76441 C927.099091,153.904962 923.185211,161.18473 921.673307,164.590973 C917.308294,174.428499 918.588535,179.076729 920.917355,181.044234 C936.926468,190.131648 952.850231,168.833406 961.507101,158.995881 L981.393515,134.020864 C996.232122,115.108222 1001.19458,107.225905 1004.94996,103.438457 C1008.70533,99.6510102 1018.36201,87.4524789 1024.79979,90.4037365 C1029.37208,92.4696168 1018.86191,108.135876 1017.3622,110.792007 C1016.0088,113.177607 984.965998,168.292342 977.869804,182.249331 C977.869804,182.249331 977.58937,182.814989 978.82084,182.814989 L993.196121,182.814989 C993.824098,182.921492 994.446015,182.595333 994.720218,182.01569 C995.281085,180.995047 1022.14177,133.196971 1022.14177,133.196971 C1035.02953,111.246993 1041.23565,106.365121 1044.99103,102.577674 C1048.7464,98.7902267 1059.12245,86.6900707 1065.54804,89.5798437 C1070.12033,91.645724 1059.61016,107.311983 1058.11045,109.968115 C1056.75705,112.353715 1026.05565,167.197918 1018.94726,181.14261 L1019.0448,180.98275 L1018.42297,182.212441 C1018.42297,182.212441 1018.14254,182.778098 1019.3862,182.778098 L1034.45647,182.778098 C1035.08445,182.884601 1035.70636,182.558442 1035.98057,181.978799 L1036.54143,180.970453 L1036.73652,180.613843 L1063.97518,132.828064 C1071.29084,117.973401 1083.21537,106.143777 1086.97075,102.35633 C1090.72612,98.5688824 1101.7362,87.1081655 1108.16179,90.0594231 C1112.73408,92.1253034 1102.22391,107.791562 1100.7242,110.447694 C1099.22449,113.103826 1075.11937,154.716558 1070.72997,164.554083 C1066.34057,174.391608 1070.27884,178.584853 1072.60766,180.540061 C1087.93398,193.427219 1118.9402,156.278265 1121.37876,153.179444 C1122.04936,152.195692 1122.80531,152.269473 1123.25644,152.576896 C1123.70758,152.884318 1123.56126,153.708211 1123.1711,154.691964 C1120.98859,160.299353 1117.87943,177.613397 1131.07201,182.040284 C1141.53341,185.544902 1155.92089,180.023591 1171.38132,169.804862 C1173.35199,175.813783 1178.02871,180.525888 1183.98865,182.507566 L1185.20793,182.901067 C1181.05019,185.139104 1173.01516,188.299409 1158.92031,190.279211 C1138.42426,193.070609 1064.90183,195.050411 1046.08838,195.050411 C1027.27493,195.050411 914.12598,192.59103 901.372338,192.099153 C888.886937,191.656465 711.945396,187.586189 710.153058,187.549298 C709.031323,187.549298 598.357511,185.27437 581.629024,185.27437 L580.934036,185.27437 C553.585644,185.409636 303.109481,197.903293 238.804789,220.664867 C231.915872,223.382484 224.929412,229.100545 225.660979,233.576619 C226.185268,236.773815 230.086956,238.556866 237.317271,238.90118 C242.474814,238.90118 358.025736,222.36184 359.525448,222.140496 C359.525448,222.140496 409.125654,217.443078 448.813134,213.803193 C488.500614,210.163309 634.594436,207.888381 670.721626,208.343367 C706.848816,208.798352 891.240142,219.26302 916.040245,221.992933 C940.840348,224.722846 1129.63327,241.397452 1138.05847,242 L1138.36329,240.48748 L1137.14401,239.884932 C1112.63654,229.420265 1108.57634,219.718005 1102.56531,212.450534 C1083.32511,213.594146 1009.2662,210.938014 985.136697,209.646839 C961.007197,208.355664 798.867684,203.965668 763.447675,201.838303 C712.920818,198.788671 509.264909,205.096984 493.792278,205.58886 C462.371499,206.646394 363.329593,218.931003 358.659761,219.681115 L305.840662,227.354384 C280.833282,231.141832 243.035682,236.87219 237.40262,236.87219 C231.464739,236.601658 228.001991,235.298186 227.648401,233.183118 C227.16069,230.219564 232.842523,225.10405 239.51197,222.472512 C303.572806,199.797017 553.6588,187.340251 580.909651,187.217281 C594.967919,187.131203 708.933781,189.467615 710.079902,189.492209 C711.872239,189.492209 888.789395,193.587079 901.262603,194.029768 C914.028437,194.49705 1027.18958,196.981025 1046.0518,196.981025 C1064.91402,196.981025 1138.57057,195.001223 1159.15197,192.197529 C1175.6366,189.959492 1184.01304,186.049075 1187.80499,183.700366 C1205.98442,188.680613 1220.38408,181.917315 1230.95522,172.63315 C1244.22096,160.963386 1248.09826,133.369128 1248.31773,119.006341 C1248.65913,96.1832825 1257.90125,86.2965697 1259.29123,83.4559843 C1260.6812,80.6153989 1259.8399,80.7752587 1258.37677,80.0989288 Z M1151.43395,134.094645 C1157.78638,123.519306 1166.99193,108.418705 1170.47906,103.74588 C1177.79472,93.9083548 1190.17039,85.1037698 1195.87661,88.5837943 C1201.19266,91.8301776 1198.52244,102.380923 1184.61048,115.268081 C1173.18586,125.843421 1158.04243,131.991874 1151.22667,134.402068 L1151.43395,134.094645 Z M1187.13439,176.752614 C1173.25901,174.440796 1173.16147,162.574281 1174.83188,155.601935 C1176.50229,148.629589 1182.87911,139.738925 1194.69391,140.439849 C1204.00919,140.439849 1205.52109,148.174603 1205.52109,155.601935 C1205.49671,161.652013 1201.70475,179.175105 1187.1222,176.740317 L1187.13439,176.752614 Z M1246.87898,99.8846514 C1246.70828,100.868404 1245.65971,103.573723 1244.44043,108.898284 C1243.58693,112.734919 1242.66028,118.342308 1241.58732,123.654572 C1238.19773,140.402958 1217.68948,166.939683 1200.97319,175.117125 C1200.29039,175.350767 1199.92461,174.50228 1200.7781,173.752169 C1201.6316,173.002058 1214.00726,158.749943 1204.69198,142.825449 C1219.19797,129.097343 1232.78227,114.411097 1245.35489,98.8640082 C1246.08645,97.9786309 1247.14722,97.9417402 1246.81802,99.8354638 L1246.87898,99.8846514 Z" id="Shape" fill="#F01B63" fill-rule="nonzero"></path>
                <path d="M49.9770332,25.8209799 C46.9747368,33.2420362 44.4563569,40.8802305 42.4402668,48.6798367 C39.786314,59.6877894 37.4425635,67.4231075 36.4889787,71.5510898 C35.0069012,76.3608709 27.4586458,103.409692 12.1668226,103.409692 C9.23713442,103.409692 0,103.409692 0,94.0752452 C0,91.3852388 2.22886079,86.2779454 6.89338389,86.2779454 C8.08666149,86.1686995 9.26321189,86.6373536 10.1044513,87.5570065 C10.9456906,88.4766595 11.3645841,89.7521638 11.2477047,91.0381412 C11.1254856,93.0657056 9.67264284,94.7064442 7.80101277,94.9305929 C4.88281359,95.3272759 3.97518471,93.4430317 3.97518471,93.4430317 C3.71933473,93.0855449 3.29052415,92.9271816 2.8853135,93.0405332 C2.48010284,93.1538847 2.17661763,93.5170968 2.11397106,93.9636782 C1.47058856,95.7983369 2.94117713,101.240332 10.8226127,101.240332 C18.7040483,101.240332 24.2072664,90.4679094 26.3786824,83.8234695 C28.2084049,78.5222187 29.7430011,73.1077701 30.9742716,67.6090526 C32.9458263,59.5686976 35.3706845,51.6657775 38.2353027,43.9444336 C40.0390714,39.8164513 43.7040539,30.4820049 48.5753785,26.403608 C49.0234485,26.0565104 50.2527686,25.1639737 49.9770332,25.8209799 Z" id="Shape" fill="#F01B63" fill-rule="nonzero"></path>
                <path d="M76.3814739,0.677413474 C73.2876057,4.47199905 69.4329797,7.60043651 65.0571637,9.86829124 C58.4379377,13.0128584 41.4452977,20.1154522 37.4811717,21.6938064 C34.6106773,22.866548 31.8362414,24.2547421 29.1824406,25.8460919 C27.4658875,23.8670786 24.5267536,20.7832174 22.5632145,19.9576168 C20.5996755,19.1320161 22.1556876,20.8439233 23.1930289,21.6209592 C25.0776059,22.9673245 26.7253723,24.6078283 28.0710034,26.4774336 C21.2665378,30.7511311 13.1900941,37.6958894 11.1524592,47.3845558 C10.1274671,52.1196183 10.0904192,61.953979 16.4503099,62.803862 C28.7996122,64.5400516 33.9122233,41.9938693 31.2694726,31.1517902 C33.6281894,29.9376716 50.7566717,22.0944655 56.3879535,19.0106043 C62.0192354,15.926743 75.3441325,10.1839621 78.6166976,1.7822614 C78.8174428,1.38970607 78.7899233,0.921678569 78.5445055,0.554480336 C78.2990878,0.187282102 77.8730565,-0.0233007219 77.4268937,0.00205637502 C76.9807308,0.027413472 76.582219,0.284858144 76.3814739,0.677413474 Z M17.1048229,61.2133666 C11.9428146,60.0720951 13.5976211,53.139478 14.2768327,50.140605 C18.9942662,35.9961234 30.2074327,31.9288261 30.2074327,31.9288261 C32.6155466,44.4828124 23.8845899,62.7188737 17.1048229,61.2133666 Z" id="Shape" fill="#F01B63" fill-rule="nonzero"></path>
                <path d="M90.6240751,56.0921752 C97.4027133,52.7152726 102.632972,46.8682733 105.241049,39.7516008 C108.327403,31.3464642 104.611433,29.4058665 102.500366,28.6271553 C91.2536914,24.7954018 81.4390848,58.6260767 80.6983598,60.45543 C77.7971868,67.5997961 72.2540945,83.8291261 66.9949468,82.5683556 C65.4394243,82.1975407 65.8344776,79.3793479 66.4764393,76.6229575 C66.822111,75.1767795 74.4639242,52.2727823 76.6367176,44.3867865 C78.809511,36.5007906 74.7478688,35.3018226 73.6120904,35.2400201 C68.4763969,35.1287757 61.3407458,44.0159716 60.4271849,45.1284162 C59.5136241,46.2408607 59.7975687,44.4733099 59.9704045,44.0530531 C60.4271849,42.6068752 68.6121965,17.2307789 68.6121965,17.2307789 C68.8097231,16.6374751 67.3776548,17.7251987 66.7110022,18.108374 C66.0443497,18.4915494 61.377782,21.7299991 60.8469291,22.1502559 C60.235076,22.7856783 59.8081999,23.5763636 59.6123874,24.4369475 C58.6988265,27.2922218 45.3410852,70.0966161 44.9089956,71.8641669 C44.476906,73.6317177 39.0078863,91.4061095 38.37827,93.6928011 C37.7486537,95.9794927 41.6868418,94.3849888 43.5139635,93.6928011 C44.8071329,93.2334379 45.7909197,92.1652111 46.1435374,90.8375267 C46.489209,89.9228501 51.8471201,72.890088 55.5013635,62.4083882 C58.0179638,55.1962562 61.7234865,48.4571704 66.4640939,42.4709097 C67.3529639,41.4697096 68.5134331,40.7033589 69.723284,41.3213837 C70.9331349,41.9394084 70.464009,43.0889345 70.0072286,44.5227519 C69.5504482,45.9565693 60.9950741,74.0025325 60.3037308,76.0049327 C57.9581015,82.852647 60.5259483,86.4124695 63.7234113,87.1293782 C70.8590624,88.6744401 77.7601505,72.840646 78.5379118,71.2461421 C79.3403639,69.3055444 79.9205985,71.3573866 79.7724535,72.5563546 C79.7724535,80.207501 84.7106203,80.7266418 86.62416,80.8378863 C95.6980416,81.2952246 104.204034,58.3788668 104.599087,57.3529457 C104.994141,56.3270246 105.228704,55.3505455 104.771923,54.9550097 C104.315143,54.5594739 103.290473,55.9314888 102.994183,56.784363 C102.994183,56.784363 95.2536065,77.1791797 88.5006634,76.4993525 C82.3279548,75.8689673 86.03158,62.7297611 86.9574863,60.2700226 C88.0068467,56.7472815 89.5994055,56.685479 90.6240751,56.0921752 Z M89.6487872,52.1862588 C90.6117297,48.9601696 95.6980416,37.3536648 97.2412187,35.2276596 C98.7843958,33.1016545 100.09301,30.9385679 101.981859,31.1734173 C104.327488,31.4577087 104.53736,34.7703213 104.092925,37.1188154 C102.930244,41.8686868 100.391973,46.1688068 96.7967837,49.4793104 C92.2289794,53.9414491 88.4019001,56.3517456 89.6611326,52.1615378 L89.6487872,52.1862588 Z" id="Shape" fill="#F01B63" fill-rule="nonzero"></path>
            </g>
        </g>
    </g>
</svg>