<?xml version="1.0" encoding="utf-8"?>
<!-- Generator: Adobe Illustrator 22.1.0, SVG Export Plug-In . SVG Version: 6.00 Build 0)  -->
<svg version="1.1" id="Layer_1" xmlns="http://www.w3.org/2000/svg" xmlns:xlink="http://www.w3.org/1999/xlink" x="0px" y="0px"
	 viewBox="0 0 1190.6 841.9" style="enable-background:new 0 0 1190.6 841.9;" xml:space="preserve">
<style type="text/css">
	.st0{fill:#FBD1B2;}
	.st1{fill:#343434;}
	.st2{fill:#FFFFFF;}
</style>
<g>
	<path class="st0" d="M453.2,223.7h283.5v283.5H453.2V223.7z"/>
	<path class="st1" d="M526.5,269.4v52.8H542c16.8,0,17.7-2.8,18.9-16h4.9v38.5h-4.9c-1.3-13.2-2.1-15.8-18.9-15.8h-15.5v45.8
		c0,9.4,2.6,11.5,19.8,11.5v5.7h-60.7v-5.7c12.6,0,17-0.6,17-10.9v-95.7c0-10.2-4.5-10.9-17-10.9V263h80.7c10.9,0,14.7-0.4,18.1-1.1
		v39.8H579c-2.8-27.7-8.3-32.4-33-32.4h-19.5V269.4z"/>
	<path class="st1" d="M694.5,263c10.9,0,14.7-0.4,18.1-1.1v39.8h-5.3c-2.8-27.7-8.3-32.4-33-32.4h-6.8v105.4
		c0,10,3.8,11.5,19.8,11.5v5.7h-63.6v-5.7c16,0,20-1.5,20-11.5V269.4h-6.8c-24.7,0-30.2,4.7-33,32.4h-5.3V262
		c3.4,0.6,7.2,1.1,18.1,1.1h77.8V263z"/>
	<path class="st2" d="M464.2,557.4c0,2.6,0.7,3.2,5.5,3.2l0,1.6l-16.5,0l0-1.6c3.2,0,4.4-0.3,4.4-3.1l0-26.3c0-2.8-1.1-3.1-4.4-3.1
		l0-1.6l22.6,0c3,0,4.1-0.1,5-0.3l0.2,10.1l-1.4,0c-0.8-7.4-2.6-8-9.4-8l-6,0l0,14.6l4.9,0c4.7,0,5-0.8,5.3-4.4l1.3,0l0,10.7l-1.3,0
		c-0.4-3.7-0.6-4.4-5.3-4.4l-4.9,0L464.2,557.4z M484.3,562.2l0-1.6c3.2,0,4.4-0.3,4.4-3.1l0-26.3c0-2.8-1.1-3.1-4.4-3.1l0-1.6
		l15.3,0l0,1.6c-3.2,0-4.4,0.3-4.4,3.1l0,26.3c0,2.8,1.1,3.1,4.4,3.1l0,1.6L484.3,562.2z M534.4,562.7L510,532.4l0,24.8
		c0,2.9,2,3.3,5.4,3.3l0,1.6l-13,0l0-1.6c3.4,0,5.3-0.4,5.3-3.3l0-27.6c-1.6-1.6-2.7-1.7-5.3-1.7l0-1.6l11.5,0l18.8,24.1l0-19.2
		c0-2.9-2-3.3-5.4-3.3l0-1.6l13,0l0,1.6c-3.4,0-5.3,0.4-5.3,3.3l0,31.4l-0.6,0L534.4,562.7z M552,562.1l-13,0l0-1.6
		c3.4,0,5-0.5,6-3.4l11.7-31.1l3.2,0l12.6,31.3c1.1,2.8,1.7,3.1,4.2,3.1l0,1.6l-15,0l0-1.6c4.6,0,5-0.4,3.9-3.1l-3.7-9.5l-11.2,0
		l-3.3,9.2c-1.1,2.8,0.6,3.4,4.5,3.4L552,562.1L552,562.1z M551.4,545.9l9.7,0l-5.1-12.8L551.4,545.9z M610.4,562.7L586,532.4
		l0,24.8c0,2.9,2,3.3,5.4,3.3l0,1.6l-12.7,0l0-1.6c3.1,0,5-0.4,5-3.3l0-27.5c-1.8-1.7-3.1-1.8-6-1.8l0-1.6l12.3,0l18.8,24.1l0-19.2
		c0-2.9-2-3.3-5.4-3.3l0-1.6l13,0l0,1.6c-3.4,0-5.3,0.4-5.3,3.3l0,31.4L610.4,562.7L610.4,562.7z M646.6,526.2l0.9,0l0.5,10.7
		l-1.4,0.1c-0.9-6.1-4.1-9.3-10.1-9.3c-6.6,0-11.7,5.7-11.7,14.4c0,11.2,7,17.5,14.4,17.5c3.2,0,6.1-0.9,8.9-3.9l1,1.1
		c-2.3,3.2-6.8,6-12.9,6c-9,0-18.2-6.8-18.2-18.2c0-11,8.3-18.8,18.4-18.8c4.8,0,7.3,2.1,8.6,2.1
		C645.8,527.8,646.3,527.2,646.6,526.2L646.6,526.2z M652.1,562l0-1.6c3.2,0,4.4-0.3,4.4-3.1l0-26.3c0-2.8-1.1-3.1-4.4-3.1l0-1.6
		l15.3,0l0,1.6c-3.2,0-4.4,0.3-4.4,3.1l0,26.3c0,2.8,1.1,3.1,4.4,3.1l0,1.6L652.1,562z M681.9,562l-12,0l0-1.6
		c2.7,0,4.1-0.5,5.1-3.4l11.7-31.1l3.2,0l12.6,31.3c1.1,2.8,1.7,3.1,4.2,3.1l0,1.6l-15,0l0-1.6c4.6,0,5-0.4,3.9-3.1l-3.7-9.5
		l-11.2,0l-3.3,9.2c-1.1,2.8,0.6,3.4,4.5,3.4L681.9,562z M681.4,545.8l9.7,0L686,533L681.4,545.8L681.4,545.8z M709.2,562l0-1.6
		c3.2,0,4.4-0.3,4.4-3.1l0-26.3c0-2.8-1.1-3.1-4.4-3.1l0-1.6l15.3,0l0,1.6c-3.2,0-4.3,0.3-4.3,3.1l0,26.6c0,2.4,1.2,2.7,3.1,2.7
		l1.8,0c6.9,0,9.1-1,11-8.9l1.3,0.2l-1.1,10.6l-27.1,0L709.2,562z"/>
	<g>
		<path class="st2" d="M485.6,581.5l0.2,10.7l-1.4,0c-0.8-7.7-2.6-8.6-9.4-8.6l-2.2,0l0,29.2c0,2.8,1.1,3.2,5.5,3.2l0,1.6l-17.6,0
			l0-1.6c4.4,0,5.5-0.4,5.5-3.2l0-29.2l-2.2,0c-6.8,0-8.7,0.9-9.4,8.6l-1.4,0l0.2-10.7c0.9,0.2,2,0.3,5,0.3l22.2,0
			C483.6,581.8,484.7,581.7,485.6,581.5z M489.1,617.6l0-1.6c3.2,0,4.4-0.3,4.4-3.1l0-26.3c0-2.8-1.1-3.1-4.4-3.1l0-1.6l15.3,0
			l0,1.6c-3.2,0-4.4,0.3-4.4,3.1l0,26.3c0,2.8,1.1,3.1,4.4,3.1l0,1.6L489.1,617.6z M550.6,581.7l0,1.6c-3.2,0-4.7,0.2-4.4,3
			l2.8,26.6c0.3,2.7,1.4,3,4.5,3l0,1.6l-15.2,0l0-1.6c3.2,0,4.3-0.3,4.1-3l-2.9-27.9l-11.3,33.1l-0.5,0L516.8,585l-2.7,27.8
			c-0.3,2.8,1.7,3.1,4.9,3.1l0,1.6l-12,0l0-1.6c3.2,0,4.4-0.5,4.6-3.1l2.7-26.5c0.3-2.8-1.1-3-4.4-3l0-1.6l12.6,0l7.6,24.4l8.1-24.4
			L550.6,581.7L550.6,581.7z M579.2,604.4l-1.3,0c-0.4-3.7-0.6-4.4-5.3-4.4l-5.4,0l0,13c0,2.4,1.2,2.7,3.1,2.7l3,0
			c6.9,0,9.1-1,11-8.9l1.3,0.2l-1.2,10.6l-28.1,0l0-1.6c3.2,0,4.4-0.3,4.4-3.1l0-26.3c0-2.8-1.1-3.1-4.4-3.1l0-1.6l27,0l0.1,8.9
			l-1.4,0c-0.8-6.3-2.4-7.1-9.5-7.1l-5.3,0l0,14.4l5.4,0c4.7,0,5-0.8,5.3-4.4l1.3,0L579.2,604.4L579.2,604.4z M607.6,610.1
			c0-3.2-2.1-4.9-5.6-6.8l-5.7-3c-4.2-2.3-6.8-4.8-6.8-9.3c0-5.6,4.8-9.9,11-9.9c4.3,0,6.5,2.1,7.7,2.1c0.8,0,1.2-0.5,1.5-1.5l1,0
			l0.5,10l-1.3,0.1c-0.7-4.8-4.2-8.6-9.1-8.6c-3.7,0-6.1,2.2-6.1,5.3c0,3.4,2.6,4.8,5.4,6.4l4.9,2.6c4.6,2.5,7.8,5,7.8,9.8
			c0,6.3-5.4,10.9-12.3,10.9c-4.8,0-7.1-2.3-8.4-2.3c-0.8,0-1.2,0.7-1.6,1.8l-1,0l-0.7-10.7l1.3-0.2c1,6.6,5.6,9.4,10.2,9.4
			C604.3,616.1,607.6,614.4,607.6,610.1L607.6,610.1z"/>
	</g>
</g>
</svg>
