<?xml version="1.0" encoding="UTF-8"?>
<svg width="350px" height="29px" viewBox="0 0 350 29" version="1.1" xmlns="http://www.w3.org/2000/svg" xmlns:xlink="http://www.w3.org/1999/xlink">
    <!-- Generator: Sketch 52.5 (67469) - http://www.bohemiancoding.com/sketch -->
    <title>Group 3</title>
    <desc>Created with Sketch.</desc>
    <g id="Updated-design" stroke="none" stroke-width="1" fill="none" fill-rule="evenodd">
        <g id="1.landingpage_v1.0.0-copy-23" transform="translate(-545.000000, -171.000000)" fill="#FFFFFF">
            <g id="Group-3" transform="translate(545.000000, 171.000000)">
                <path d="M8.38813086,24.6136813 C8.38813086,26.5851821 8.95127751,27.0357255 12.5541551,27.0357255 L12.5541551,28.2748028 L-4.19220214e-13,28.2748028 L-4.19220214e-13,27.0357255 C2.47691612,27.0357255 3.32180203,26.8102878 3.32180203,24.6701238 L3.32180203,4.56201099 C3.32180203,2.42151493 2.47691612,2.19607724 -4.19220214e-13,2.19607724 L-4.19220214e-13,0.956999952 L21.0551144,0.956999952 L21.1679428,8.44823812 L20.154478,8.44823812 C19.5913313,2.8159479 18.1839624,2.30929411 12.9483909,2.30929411 L8.33204848,2.30929411 L8.33204848,13.4616537 L12.0474227,13.4616537 C15.5942179,13.4616537 15.8195429,12.8982255 16.1009503,10.0820804 L17.1144152,10.0820804 L17.1144152,18.2492996 L16.1009503,18.2492996 C15.8195429,15.4331545 15.5942179,14.9258367 12.0474227,14.9258367 L8.33204848,14.9258367 L8.33204848,24.6140133 L8.3884627,24.6140133 L8.38813086,24.6136813 Z" id="Path"></path>
                <path d="M23.7573555,28.2748028 L23.7573555,27.0357255 C26.2346035,27.0357255 27.0791576,26.8102878 27.0791576,24.6701238 L27.0791576,4.56201099 C27.0791576,2.42151493 26.2346035,2.19607724 23.7573555,2.19607724 L23.7573555,0.956999952 L35.4672884,0.956999952 L35.4672884,2.19640925 C32.9900405,2.19640925 32.1454864,2.42184695 32.1454864,4.562343 L32.1454864,24.6704558 C32.1454864,26.8106198 32.9900405,27.0360575 35.4672884,27.0360575 L35.4672884,28.2751348 L23.7570237,28.2751348 L23.7573555,28.2748028 Z" id="Path"></path>
                <path d="M62.0393817,28.6673462 L43.3486869,5.51765064 L43.3486869,24.499571 C43.3486869,26.6965095 44.8685523,27.034168 47.4586287,27.034168 L47.4586287,28.2735773 L37.5503006,28.2735773 L37.5503006,27.034168 C40.1397133,27.034168 41.547414,26.6965095 41.547414,24.499571 L41.547414,3.43359701 C40.3650383,2.19451972 39.5204842,2.13807729 37.5503006,2.13807729 L37.5503006,0.899000007 L46.3326673,0.899000007 L60.6320128,19.3174921 L60.6320128,4.61656389 C60.6320128,2.41995742 59.1121474,2.08196688 56.5224028,2.08196688 L56.5224028,0.899000007 L66.4868134,0.899000007 L66.4868134,2.13840931 C63.8974007,2.13840931 62.4896999,2.47639984 62.4896999,4.67333833 L62.4896999,28.6680102 L62.0393817,28.6680102 L62.0393817,28.6673462 Z" id="Path"></path>
                <path d="M75.3820085,28.288101 L65.5297627,28.288101 L65.5297627,27.0490237 C68.1195073,27.0490237 69.301883,26.7110332 70.1461052,24.4579843 L79.0413003,0.688750035 L81.5182164,0.688750035 L91.088723,24.6269795 C91.933277,26.7674756 92.327181,26.9925813 94.2976966,26.9925813 L94.2976966,28.2316586 L82.8695029,28.2316586 L82.8695029,26.9925813 C86.3598839,26.9925813 86.6977055,26.7110332 85.8528196,24.6269795 L83.0384137,17.3611791 L74.4810402,17.3611791 L71.9480417,24.4015418 C71.1599019,26.5420379 72.39836,26.9925813 75.4384227,26.9925813 L75.4384227,28.288101 L75.3820085,28.288101 Z M74.9877727,15.9527745 L82.4188529,15.9527745 L78.5345679,6.152377 L74.9877727,15.9527745 Z" id="Combined-Shape"></path>
                <path d="M119.969153,28.6745962 L101.334873,5.52490063 L101.334873,24.506821 C101.334873,26.7037595 102.854738,27.041418 105.444483,27.041418 L105.444483,28.2808273 L95.7611478,28.2808273 L95.7611478,27.041418 C98.1258992,27.041418 99.5332681,26.7037595 99.5332681,24.506821 L99.5332681,3.49728943 C98.1823134,2.25821214 97.1688485,2.14532729 94.9172574,2.14532729 L94.9172574,0.90625 L104.262107,0.90625 L118.561453,19.3247421 L118.561453,4.62381388 C118.561453,2.42720741 117.041587,2.08921687 114.452175,2.08921687 L114.452175,0.90625 L124.360503,0.90625 L124.360503,2.1456593 C121.770758,2.1456593 120.363389,2.48364984 120.363389,4.68058832 L120.363389,28.6752602 L119.969153,28.6752602 L119.969153,28.6745962 Z" id="Path"></path>
                <path d="M147.611126,0.539432998 L148.286769,0.539432998 L148.680673,8.70632022 L147.66754,8.76276265 C146.991897,4.08800161 144.514981,1.60951502 139.954721,1.60951502 C134.88806,1.60951502 131.059857,5.94661754 131.059857,12.5928794 C131.059857,21.0980891 136.407925,25.9418455 142.037401,25.9418455 C144.458566,25.9418455 146.654075,25.2661964 148.79317,22.9570371 L149.581641,23.745239 C147.836119,26.2237256 144.402152,28.3077792 139.785478,28.3077792 C132.917544,28.3077792 125.936782,23.1257003 125.936782,14.4514953 C125.936451,6.05917038 132.297983,0.145000035 140.011135,0.145000035 C143.670427,0.145000035 145.584528,1.72206786 146.597661,1.72206786 C147.047979,1.72206786 147.385801,1.32796691 147.611126,0.539432998 Z" id="Path"></path>
                <path d="M152.173913,28.2603028 L152.173913,27.0212255 C154.651161,27.0212255 155.495715,26.7957878 155.495715,24.6556238 L155.495715,4.547511 C155.495715,2.40701495 154.651161,2.18157725 152.173913,2.18157725 L152.173913,0.942499965 L163.883846,0.942499965 L163.883846,2.18190927 C161.40693,2.18190927 160.562044,2.40734696 160.562044,4.54784302 L160.562044,24.6559558 C160.562044,26.7961198 161.40693,27.0215575 163.883846,27.0215575 L163.883846,28.2606348 L152.173913,28.2606348 L152.173913,28.2603028 Z" id="Path"></path>
                <path d="M174.577455,28.288101 L165.400852,28.288101 L165.400852,27.0490237 C167.427782,27.0490237 168.497329,26.7110332 169.341883,24.4579843 L178.236747,0.688750035 L180.713663,0.688750035 L190.284169,24.6269795 C191.128723,26.7674756 191.522959,26.9925813 193.493143,26.9925813 L193.493143,28.2316586 L182.065281,28.2316586 L182.065281,26.9925813 C185.555662,26.9925813 185.893484,26.7110332 185.04893,24.6269795 L182.234192,17.3611791 L173.67715,17.3611791 L171.143488,24.4015418 C170.355348,26.5420379 171.594138,26.9925813 174.634201,26.9925813 L174.634201,28.288101 L174.577787,28.288101 L174.577455,28.288101 Z M174.183219,15.9527745 L181.614631,15.9527745 L177.786429,6.152377 L174.183219,15.9527745 Z" id="Combined-Shape"></path>
                <path d="M195.407244,28.2748028 L195.407244,27.0357255 C197.884492,27.0357255 198.729046,26.8102878 198.729046,24.6701238 L198.729046,4.56201099 C198.729046,2.42151493 197.884492,2.19607724 195.407244,2.19607724 L195.407244,0.956999952 L207.060763,0.956999952 L207.060763,2.19640925 C204.583847,2.19640925 203.795375,2.42184695 203.795375,4.562343 L203.795375,24.839451 C203.795375,26.6416245 204.696343,26.8670622 206.160127,26.8670622 L207.567495,26.8670622 C212.859481,26.8670622 214.548257,26.0785283 216.01204,20.0518051 L217.025505,20.164358 L216.180951,28.2190244 L195.407244,28.2190244 L195.407244,28.2754668 L195.407244,28.2748028 Z" id="Path"></path>
                <path d="M252.154972,0.956999952 L252.267469,8.8987815 L251.254004,8.8987815 C250.691521,3.04105358 249.28382,2.30929411 244.047917,2.30929411 L242.359141,2.30929411 L242.359141,24.6140133 C242.359141,26.7545094 243.14728,27.0360575 246.525165,27.0360575 L246.525165,28.2751348 L233.126456,28.2751348 L233.126456,27.0360575 C236.50434,27.0360575 237.348562,26.698067 237.348562,24.6140133 L237.348562,2.30896209 L235.659786,2.30896209 C230.424215,2.30896209 229.016846,3.04105358 228.453699,8.8987815 L227.440566,8.8987815 L227.553063,0.956999952 L252.154972,0.956999952 Z" id="Path"></path>
                <path d="M254.800799,28.2751348 L254.800799,27.0357255 C257.278047,27.0357255 258.122601,26.8102878 258.122601,24.6701238 L258.122601,4.56201099 C258.122601,2.42151493 257.278047,2.19607724 254.800799,2.19607724 L254.800799,0.956999952 L266.510732,0.956999952 L266.510732,2.19640925 C264.033484,2.19640925 263.18893,2.42184695 263.18893,4.562343 L263.18893,24.6704558 C263.18893,26.8106198 264.033484,27.0360575 266.510732,27.0360575 L266.510732,28.2751348 L254.800799,28.2751348 Z" id="Path"></path>
                <path d="M301.753027,0.956999952 L301.753027,2.19674127 C299.275779,2.19674127 298.206232,2.30962612 298.431225,4.50623259 L300.570652,24.7833406 C300.795977,26.8673943 301.584116,27.0924999 304.061033,27.0924999 L304.061033,28.3319092 L292.407514,28.3319092 L292.407514,27.0924999 C294.828348,27.0924999 295.672902,26.8673943 295.503991,24.7833406 L293.30815,3.49159695 L284.694694,28.7817886 L284.356873,28.7817886 L275.911996,3.43581856 L273.885066,24.7265662 C273.660073,26.8670622 275.123856,27.0921679 277.600772,27.0921679 L277.600772,28.3315772 L268.480584,28.3315772 L268.480584,27.0921679 C270.957832,27.0921679 271.802386,26.698067 271.970965,24.7265662 L274.110391,4.44945815 C274.335716,2.30929411 273.265837,2.14029884 270.788589,2.14029884 L270.788589,0.957331966 L280.359096,0.957331966 L286.101731,19.6009298 L292.294354,0.957331966 L301.752032,0.957331966 L301.753027,0.956999952 Z" id="Path"></path>
                <path d="M323.539867,18.2921357 L322.526734,18.2921357 C322.244995,15.4759906 322.020002,14.9686728 318.473207,14.9686728 L314.30685,14.9686728 L314.30685,24.8822871 C314.30685,26.6844607 315.207819,26.9098983 316.67127,26.9098983 L318.923193,26.9098983 C324.215179,26.9098983 325.903955,26.1213644 327.367738,20.0946412 L328.381203,20.2071941 L327.424152,28.2618605 L305.91872,28.2618605 L305.91872,27.0224512 C308.395636,27.0224512 309.24019,26.7973455 309.24019,24.6568495 L309.24019,4.60551112 C309.24019,2.46501507 308.395636,2.23957737 305.918388,2.23957737 L305.918388,1.00050008 L326.579598,1.00050008 L326.692427,7.81575718 L325.678962,7.81575718 C325.059733,2.97166886 323.821275,2.40857264 318.41646,2.40857264 L314.363265,2.40857264 L314.363265,13.5044898 L318.529289,13.5044898 C322.075752,13.5044898 322.301077,12.9413936 322.582485,10.1252485 L323.59595,10.1252485 L323.59595,18.2924677 L323.539535,18.2924677 L323.539867,18.2921357 Z" id="Path"></path>
                <path d="M345.270625,22.570392 C345.270625,20.0922374 343.694345,18.8531601 340.992104,17.3322027 L336.657169,15.0791538 C333.391781,13.3330907 331.478012,11.4180324 331.478012,7.9823486 C331.47768,3.70202052 335.136972,0.435000017 339.922225,0.435000017 C343.187613,0.435000017 344.876389,2.01206784 345.83344,2.01206784 C346.452669,2.01206784 346.734076,1.61796689 347.015484,0.82943298 L347.803623,0.82943298 L348.197859,8.48966642 L347.184394,8.54610885 C346.62158,4.82821295 343.975421,1.95562541 340.260047,1.95562541 C337.444977,1.95562541 335.58729,3.64557809 335.58729,6.01117983 C335.58729,8.60221926 337.557474,9.67230128 339.753314,10.8552682 L343.468688,12.8264369 C346.959401,14.7414953 349.436317,16.6565536 349.436317,20.3176751 C349.436317,25.1617634 345.270293,28.5977792 340.091136,28.5977792 C336.431512,28.5977792 334.630239,26.8513841 333.673189,26.8513841 C333.05396,26.8513841 332.716138,27.4148123 332.434731,28.2597887 L331.646259,28.2597887 L331.083444,20.1486798 L332.096909,20.036127 C332.885049,25.105321 336.37543,27.1893746 339.865811,27.1893746 C342.793377,27.1329322 345.270293,25.8377445 345.270293,22.571056 L345.270625,22.570392 Z" id="Path"></path>
            </g>
        </g>
    </g>
</svg>